
>>
>> "C:\Program Files (x86)\ffmpegyag\bin\ffmpeg.exe" -i "D:\2022\Card JAV\full shot folder\(Footage)\effects Q.mov" -strict experimental -f webm -map_chapters -1 -map 0:0 -sn -an -b:v:0 10000k -aspect:v:0 16:9 -mbd:v:0 rd -mbcmp:v:0 rd -cmp:v:0 rd -precmp:v:0 rd -subcmp:v:0 rd -trellis:v:0 1 -filter:v:0 "scale=1280:720" -y "D:\2022\Card JAV\full shot folder\(Footage)\effects Q.webm"
>>

ffmpeg version 2.5.2 Copyright (c) 2000-2014 the FFmpeg developers
  built on Dec 30 2014 17:18:09 with gcc 4.9.2 (GCC)
  configuration: --disable-static --enable-shared --enable-gpl --enable-version3 --disable-w32threads --enable-avisynth --enable-bzlib --enable-fontconfig --enable-frei0r --enable-gnutls --enable-iconv --enable-libass --enable-libbluray --enable-libbs2b --enable-libcaca --enable-libfreetype --enable-libgme --enable-libgsm --enable-libilbc --enable-libmodplug --enable-libmp3lame --enable-libopencore-amrnb --enable-libopencore-amrwb --enable-libopenjpeg --enable-libopus --enable-librtmp --enable-libschroedinger --enable-libsoxr --enable-libspeex --enable-libtheora --enable-libtwolame --enable-libvidstab --enable-libvo-aacenc --enable-libvo-amrwbenc --enable-libvorbis --enable-libvpx --enable-libwavpack --enable-libwebp --enable-libx264 --enable-libx265 --enable-libxavs --enable-libxvid --enable-lzma --enable-decklink --enable-zlib
  libavutil      54. 15.100 / 54. 15.100
  libavcodec     56. 13.100 / 56. 13.100
  libavformat    56. 15.102 / 56. 15.102
  libavdevice    56.  3.100 / 56.  3.100
  libavfilter     5.  2.103 /  5.  2.103
  libswscale      3.  1.101 /  3.  1.101
  libswresample   1.  1.100 /  1.  1.100
  libpostproc    53.  3.100 / 53.  3.100
Input #0, mov,mp4,m4a,3gp,3g2,mj2, from 'D:\2022\Card JAV\full shot folder\(Footage)\effects Q.mov':
  Metadata:
    major_brand     : qt  
    minor_version   : 537199360
    compatible_brands: qt  
    creation_time   : 2022-08-24 04:43:33
    xmp             : <?xpacket begin="﻿" id="W5M0MpCehiHzreSzNTczkc9d"?>
                    : <x:xmpmeta xmlns:x="adobe:ns:meta/" x:xmptk="Adobe XMP Core 7.0-c000 79.1357c9e, 2021/07/14-00:39:56        ">
                    :  <rdf:RDF xmlns:rdf="http://www.w3.org/1999/02/22-rdf-syntax-ns#">
                    :   <rdf:Description rdf:about=""
                    :     xmlns:xmp="http://ns.adobe.com/xap/1.0/"
                    :     xmlns:xmpDM="http://ns.adobe.com/xmp/1.0/DynamicMedia/"
                    :     xmlns:stDim="http://ns.adobe.com/xap/1.0/sType/Dimensions#"
                    :     xmlns:xmpMM="http://ns.adobe.com/xap/1.0/mm/"
                    :     xmlns:stEvt="http://ns.adobe.com/xap/1.0/sType/ResourceEvent#"
                    :     xmlns:creatorAtom="http://ns.adobe.com/creatorAtom/1.0/"
                    :     xmlns:dc="http://purl.org/dc/elements/1.1/"
                    :    xmp:ModifyDate="2022-08-24T12:02:38+07:00"
                    :    xmp:MetadataDate="2022-08-24T12:02:38+07:00"
                    :    xmpDM:startTimeScale="25"
                    :    xmpDM:startTimeSampleSize="1"
                    :    xmpDM:videoFrameRate="25.000000"
                    :    xmpDM:videoFieldOrder="Progressive"
                    :    xmpDM:videoPixelAspectRatio="1/1"
                    :    xmpDM:audioSampleRate="48000"
                    :    xmpDM:audioSampleType="16Int"
                    :    xmpDM:audioChannelType="Stereo"
                    :    xmpMM:InstanceID="xmp.iid:bc378fb1-528a-ef4f-bc9c-a8a31c5ac029"
                    :    xmpMM:DocumentID="xmp.did:dacee856-96ee-a541-98de-a3be2a5ce36d"
                    :    xmpMM:OriginalDocumentID="xmp.did:dacee856-96ee-a541-98de-a3be2a5ce36d"
                    :    dc:format="QuickTime">
                    :    <xmpDM:duration
                    :     xmpDM:value="250"
                    :     xmpDM:scale="1/25"/>
                    :    <xmpDM:altTimecode
                    :     xmpDM:timeValue="00:00:00:00"
                    :     xmpDM:timeFormat="25Timecode"/>
                    :    <xmpDM:videoFrameSize
                    :     stDim:w="1920"
                    :     stDim:h="1080"
                    :     stDim:unit="pixel"/>
                    :    <xmpDM:startTimecode
                    :     xmpDM:timeFormat="25Timecode"
                    :     xmpDM:timeValue="00:00:00:00"/>
                    :    <xmpMM:History>
                    :     <rdf:Seq>
                    :      <rdf:li
                    :       stEvt:action="created"
                    :       stEvt:instanceID="xmp.iid:dacee856-96ee-a541-98de-a3be2a5ce36d"
                    :       stEvt:when="2022-08-24T11:43:33+07:00"/>
                    :      <rdf:li
                    :       stEvt:action="saved"
                    :       stEvt:instanceID="xmp.iid:bc378fb1-528a-ef4f-bc9c-a8a31c5ac029"
                    :       stEvt:when="2022-08-24T12:02:38+07:00"
                    :       stEvt:changed="/"/>
                    :     </rdf:Seq>
                    :    </xmpMM:History>
                    :    <creatorAtom:windowsAtom
                    :     creatorAtom:extension=".aep"
                    :     creatorAtom:invocationFlags="-ep"/>
                    :    <creatorAtom:macAtom
                    :     creatorAtom:applicationCode="1180193859"
                    :     creatorAtom:invocationAppleEvent="1131559026"/>
                    :    <creatorAtom:aeProjectLink
                    :     creatorAtom:compositionID="1"
                    :     creatorAtom:renderQueueItemID="7"
                    :     creatorAtom:renderOutputModuleIndex="0"
                    :     creatorAtom:fullPath="F:\HAI\Nhật Bổn\full shot.aep"/>
                    :   </rdf:Description>
                    :  </rdf:RDF>
                    : </x:xmpmeta>
                    :                                                                                                     
                    :                                                                                                     
                    :                                                                                                     
                    :                                                                                                     
                    :                                                                                                     
                    :                                                                                                     
                    :                                                                                                     
                    :                                                                                                     
                    :                                                                                                     
                    :                                                                                                     
                    :                                                                                                     
                    :                                                                                                     
                    :                                                                                                     
                    :                                                                                                     
                    :                                                                                                     
                    :                                                                                                     
                    :                                                                                                     
                    :                                                                                                     
                    :                                                                                                     
                    :                                                                                                     
                    :                            
                    : <?xpacket end="w"?>
  Duration: 00:00:10.00, start: 0.000000, bitrate: 307651 kb/s
    Stream #0:0(eng): Video: qtrle (rle  / 0x20656C72), bgra, 1920x1080, 305276 kb/s, SAR 1920:1920 DAR 16:9, 25 fps, 25 tbr, 25 tbn, 25 tbc (default)
    Metadata:
      creation_time   : 2022-08-24 04:43:33
      handler_name    : Apple Alias Data Handler
      encoder         : Animation
      timecode        : 00:00:00:00
    Stream #0:1(eng): Audio: pcm_s16le (sowt / 0x74776F73), 48000 Hz, stereo, s16, 1536 kb/s (default)
    Metadata:
      creation_time   : 2022-08-24 04:43:33
      handler_name    : Apple Alias Data Handler
      timecode        : 00:00:00:00
    Stream #0:2(eng): Data: none (tmcd / 0x64636D74), 0 kb/s (default)
    Metadata:
      creation_time   : 2022-08-24 04:43:33
      handler_name    : Apple Alias Data Handler
      timecode        : 00:00:00:00
[libvpx @ 027ef7a0] v1.3.0
Output #0, webm, to 'D:\2022\Card JAV\full shot folder\(Footage)\effects Q.webm':
  Metadata:
    major_brand     : qt  
    minor_version   : 537199360
    compatible_brands: qt  
    xmp             : <?xpacket begin="﻿" id="W5M0MpCehiHzreSzNTczkc9d"?>
                    : <x:xmpmeta xmlns:x="adobe:ns:meta/" x:xmptk="Adobe XMP Core 7.0-c000 79.1357c9e, 2021/07/14-00:39:56        ">
                    :  <rdf:RDF xmlns:rdf="http://www.w3.org/1999/02/22-rdf-syntax-ns#">
                    :   <rdf:Description rdf:about=""
                    :     xmlns:xmp="http://ns.adobe.com/xap/1.0/"
                    :     xmlns:xmpDM="http://ns.adobe.com/xmp/1.0/DynamicMedia/"
                    :     xmlns:stDim="http://ns.adobe.com/xap/1.0/sType/Dimensions#"
                    :     xmlns:xmpMM="http://ns.adobe.com/xap/1.0/mm/"
                    :     xmlns:stEvt="http://ns.adobe.com/xap/1.0/sType/ResourceEvent#"
                    :     xmlns:creatorAtom="http://ns.adobe.com/creatorAtom/1.0/"
                    :     xmlns:dc="http://purl.org/dc/elements/1.1/"
                    :    xmp:ModifyDate="2022-08-24T12:02:38+07:00"
                    :    xmp:MetadataDate="2022-08-24T12:02:38+07:00"
                    :    xmpDM:startTimeScale="25"
                    :    xmpDM:startTimeSampleSize="1"
                    :    xmpDM:videoFrameRate="25.000000"
                    :    xmpDM:videoFieldOrder="Progressive"
                    :    xmpDM:videoPixelAspectRatio="1/1"
                    :    xmpDM:audioSampleRate="48000"
                    :    xmpDM:audioSampleType="16Int"
                    :    xmpDM:audioChannelType="Stereo"
                    :    xmpMM:InstanceID="xmp.iid:bc378fb1-528a-ef4f-bc9c-a8a31c5ac029"
                    :    xmpMM:DocumentID="xmp.did:dacee856-96ee-a541-98de-a3be2a5ce36d"
                    :    xmpMM:OriginalDocumentID="xmp.did:dacee856-96ee-a541-98de-a3be2a5ce36d"
                    :    dc:format="QuickTime">
                    :    <xmpDM:duration
                    :     xmpDM:value="250"
                    :     xmpDM:scale="1/25"/>
                    :    <xmpDM:altTimecode
                    :     xmpDM:timeValue="00:00:00:00"
                    :     xmpDM:timeFormat="25Timecode"/>
                    :    <xmpDM:videoFrameSize
                    :     stDim:w="1920"
                    :     stDim:h="1080"
                    :     stDim:unit="pixel"/>
                    :    <xmpDM:startTimecode
                    :     xmpDM:timeFormat="25Timecode"
                    :     xmpDM:timeValue="00:00:00:00"/>
                    :    <xmpMM:History>
                    :     <rdf:Seq>
                    :      <rdf:li
                    :       stEvt:action="created"
                    :       stEvt:instanceID="xmp.iid:dacee856-96ee-a541-98de-a3be2a5ce36d"
                    :       stEvt:when="2022-08-24T11:43:33+07:00"/>
                    :      <rdf:li
                    :       stEvt:action="saved"
                    :       stEvt:instanceID="xmp.iid:bc378fb1-528a-ef4f-bc9c-a8a31c5ac029"
                    :       stEvt:when="2022-08-24T12:02:38+07:00"
                    :       stEvt:changed="/"/>
                    :     </rdf:Seq>
                    :    </xmpMM:History>
                    :    <creatorAtom:windowsAtom
                    :     creatorAtom:extension=".aep"
                    :     creatorAtom:invocationFlags="-ep"/>
                    :    <creatorAtom:macAtom
                    :     creatorAtom:applicationCode="1180193859"
                    :     creatorAtom:invocationAppleEvent="1131559026"/>
                    :    <creatorAtom:aeProjectLink
                    :     creatorAtom:compositionID="1"
                    :     creatorAtom:renderQueueItemID="7"
                    :     creatorAtom:renderOutputModuleIndex="0"
                    :     creatorAtom:fullPath="F:\HAI\Nhật Bổn\full shot.aep"/>
                    :   </rdf:Description>
                    :  </rdf:RDF>
                    : </x:xmpmeta>
                    :                                                                                                     
                    :                                                                                                     
                    :                                                                                                     
                    :                                                                                                     
                    :                                                                                                     
                    :                                                                                                     
                    :                                                                                                     
                    :                                                                                                     
                    :                                                                                                     
                    :                                                                                                     
                    :                                                                                                     
                    :                                                                                                     
                    :                                                                                                     
                    :                                                                                                     
                    :                                                                                                     
                    :                                                                                                     
                    :                                                                                                     
                    :                                                                                                     
                    :                                                                                                     
                    :                                                                                                     
                    :                            
                    : <?xpacket end="w"?>
    encoder         : Lavf56.15.102
    Stream #0:0(eng): Video: vp8 (libvpx), yuva420p, 1280x720 [SAR 1:1 DAR 16:9], q=-1--1, 10000 kb/s, 25 fps, 1k tbn, 25 tbc (default)
    Metadata:
      creation_time   : 2022-08-24 04:43:33
      handler_name    : Apple Alias Data Handler
      timecode        : 00:00:00:00
      encoder         : Lavc56.13.100 libvpx
Stream mapping:
  Stream #0:0 -> #0:0 (qtrle (native) -> vp8 (libvpx))
Press [q] to stop, [?] for help
video:8750kB audio:0kB subtitle:0kB other streams:0kB global headers:0kB muxing overhead: 0.065164%
